<svg id="Layer_1" data-name="Layer 1" xmlns="http://www.w3.org/2000/svg" viewBox="0 0 373.3 80.56"><defs><style>.cls-1{fill:#fff; stroke-width: 2;}</style></defs><path class="cls-1" d="M239.84,279.12c0-3,.26-13.72,19.78-13.72A97,97,0,0,1,277,267.51l2-4.61a67.73,67.73,0,0,0-19.39-3.43c-15.83,0-25.32,6.86-25.32,19.52,0,25.59,44.84,19.39,44.84,38.65,0,8.7-9.49,12.79-19.12,12.79a67.45,67.45,0,0,1-22.16-4.22l-1.72,4.22C242.87,334,254.08,336,261.2,336c10.16,0,23.48-5.54,23.48-18.07C284.68,292.84,239.84,298.51,239.84,279.12Z" transform="translate(-234.3 -257.36)"/><path class="cls-1" d="M348.37,330.43a32.52,32.52,0,0,1,0-65c7.52,0,14.25,1.32,20.45,5.94l3.43-3.83c-6.46-5.27-15.57-8-23.88-8a38.25,38.25,0,1,0,.13,76.5c10.56,0,20.45-2.9,27.18-10l-2.9-4.22C364.86,328.72,354.84,330.43,348.37,330.43Z" transform="translate(-234.3 -257.36)"/><rect class="cls-1" x="172.8" y="3.03" width="5.54" height="74.93"/><polygon class="cls-1" points="337.81 45.9 302.33 1.05 302.33 77.95 307.87 77.95 307.87 16.88 337.81 54.87 367.76 16.88 367.76 77.95 373.3 77.95 373.3 1.05 337.81 45.9"/><polygon class="cls-1" points="209.31 80.56 242.37 50.58 238.56 46.77 222.48 61.35 240.54 14.49 264.1 71.37 244.13 64.3 236.7 67.38 273.69 80.47 240.36 0 209.31 80.56"/></svg>