<svg width="22" height="22" viewBox="0 0 22 22" fill="none" xmlns="http://www.w3.org/2000/svg">
<path d="M5.28711 0.479492L2.05859 9.08984L1.87695 9.5791L0.347656 13.6572L11 21.4062L21.6523 13.6572L20.123 9.5791L16.71 0.479492L13.9121 9.08984H8.08789L5.28711 0.479492ZM5.1875 5.02051L6.51172 9.08984H3.66113L5.1875 5.02051ZM16.8125 5.02051L18.3389 9.08984H15.4883L16.8125 5.02051ZM3.09863 10.5898H6.99805L9.57031 18.5117L2.15234 13.1152L3.09863 10.5898ZM8.57422 10.5898H13.4258L11 18.0518L8.57422 10.5898ZM15.002 10.5898H18.8984L19.8477 13.1152L12.4268 18.5117L15.002 10.5898Z" fill="#384A72"/>
</svg>
