<svg width="22" height="22" viewBox="0 0 22 22" fill="none" xmlns="http://www.w3.org/2000/svg">
<path d="M2.5 0C1.13281 0 0 1.13281 0 2.5V19.5C0 20.8672 1.13281 22 2.5 22H19.5C20.8672 22 22 20.8672 22 19.5V2.5C22 1.13281 20.8672 0 19.5 0H2.5ZM2.5 2H19.5C19.7852 2 20 2.21484 20 2.5V19.5C20 19.7852 19.7852 20 19.5 20H2.5C2.21484 20 2 19.7852 2 19.5V2.5C2 2.21484 2.21484 2 2.5 2ZM5.4375 3.71875C4.48828 3.71875 3.71875 4.48828 3.71875 5.4375C3.71875 6.38672 4.48828 7.15625 5.4375 7.15625C6.38672 7.15625 7.15625 6.38672 7.15625 5.4375C7.15625 4.48828 6.38672 3.71875 5.4375 3.71875ZM14.4688 8.28125C13.0352 8.28125 12.082 9.06641 11.6875 9.8125H11.625V8.5H8.8125V18H11.75V13.3125C11.75 12.0742 11.9961 10.875 13.5312 10.875C15.043 10.875 15.0625 12.2734 15.0625 13.375V18H18V12.7812C18 10.2266 17.457 8.28125 14.4688 8.28125ZM4 8.5V18H6.96875V8.5H4Z" fill="#384A72"/>
</svg>
