<svg width="18" height="18" viewBox="0 0 18 18" fill="none" xmlns="http://www.w3.org/2000/svg">
<path d="M8.95312 0.0236647C6.68775 0.0328522 4.43844 0.320466 3.26807 0.860091C3.26807 0.860091 0.75 2.00637 0.75 5.91087C0.75 10.5586 0.746625 16.3954 4.92188 17.5242C6.52087 17.9539 7.89596 18.0464 9.00146 17.9826C11.0077 17.8694 12 17.2546 12 17.2546L11.9326 15.7722C11.9326 15.7722 10.6322 16.2305 9.02197 16.178C7.42672 16.1217 5.74613 16.002 5.48438 14.01C5.46037 13.8247 5.44847 13.6372 5.44922 13.4504C8.82947 14.2897 11.7119 13.816 12.5054 13.72C14.7209 13.4507 16.6495 12.0615 16.8955 10.7917C17.281 8.79073 17.2485 5.91087 17.2485 5.91087C17.2485 2.00637 14.7349 0.860091 14.7349 0.860091C13.5007 0.283716 11.2185 0.0144772 8.95312 0.0236647ZM6.52881 3.00169C7.30497 3.0225 8.07193 3.36975 8.54443 4.10325L9.00146 4.87962L9.45703 4.10325C10.4058 2.628 12.5322 2.72006 13.5439 3.86156C14.4769 4.94756 14.269 5.64848 14.269 10.5002V10.5017H12.4336V6.28001C12.4336 4.30376 9.91406 4.22744 9.91406 6.55394V9.00023H8.09033V6.55394C8.09033 4.22744 5.57227 4.3023 5.57227 6.27855V10.5002H3.73242C3.73242 5.64473 3.52827 4.93931 4.45752 3.86156C4.96714 3.28706 5.75265 2.98088 6.52881 3.00169Z" fill="#384A72"/>
</svg>
