<svg width="24" height="25" viewBox="0 0 24 25" fill="none" xmlns="http://www.w3.org/2000/svg">
<path d="M10 13.5C10.4295 14.0741 10.9774 14.5491 11.6066 14.8929C12.2357 15.2367 12.9315 15.4411 13.6467 15.4923C14.3618 15.5435 15.0796 15.4403 15.7513 15.1897C16.4231 14.9392 17.0331 14.547 17.54 14.04L20.54 11.04C21.4508 10.097 21.9548 8.83394 21.9434 7.52296C21.932 6.21198 21.4061 4.95791 20.4791 4.03087C19.5521 3.10383 18.298 2.57799 16.987 2.5666C15.676 2.5552 14.413 3.05918 13.47 3.96997L11.75 5.67997" stroke="#384A72" stroke-width="2" stroke-linecap="round" stroke-linejoin="round"/>
<path d="M14 11.5002C13.5705 10.9261 13.0226 10.451 12.3934 10.1073C11.7642 9.76353 11.0684 9.55911 10.3533 9.50789C9.63816 9.45667 8.92037 9.55986 8.24861 9.81044C7.57685 10.061 6.96684 10.4532 6.45996 10.9602L3.45996 13.9602C2.54917 14.9032 2.04519 16.1662 2.05659 17.4772C2.06798 18.7882 2.59382 20.0423 3.52086 20.9693C4.4479 21.8964 5.70197 22.4222 7.01295 22.4336C8.32393 22.445 9.58694 21.941 10.53 21.0302L12.24 19.3202" stroke="#384A72" stroke-width="2" stroke-linecap="round" stroke-linejoin="round"/>
</svg>
